<svg xmlns="http://www.w3.org/2000/svg" viewBox="0 0 967.38 917.36"><defs><style>.cls-1{fill:#040505;}.cls-2{fill:#fff;stroke:#1d1d1b;stroke-miterlimit:10;stroke-width:15px;}</style></defs><title>Recurso 2</title><g id="Capa_2" data-name="Capa 2"><g id="Capa_1-2" data-name="Capa 1"><g id="Capa_1-2-2" data-name="Capa 1-2"><g id="Capa_1-2-3" data-name="Capa 1-2-3"><polygon points="203.02 288.89 147.5 192.66 91.91 288.88 203.02 288.89"/><rect class="cls-1" y="0.03" width="19.31" height="209.72"/><rect class="cls-1" x="274.65" y="0.02" width="19.31" height="209.72"/><rect class="cls-1" y="190.43" width="293.95" height="19.31"/><rect class="cls-1" x="0.04" width="293.95" height="19.31"/></g><g id="Capa_1-2-4" data-name="Capa 1-2-4"><circle class="cls-2" cx="796.67" cy="746.65" r="163.21"/><rect class="cls-1" x="790.91" y="632.21" width="11.47" height="85.02"/><rect class="cls-1" x="804.01" y="618.44" width="11.47" height="48.46" transform="translate(-217.37 759.92) rotate(-44.95)"/><rect class="cls-1" x="759.36" y="636.92" width="48.46" height="11.47" transform="translate(-225.01 741.44) rotate(-44.95)"/><rect class="cls-1" x="791.07" y="776.44" width="11.47" height="85.02" transform="translate(-1.14 1.11) rotate(-0.08)"/><rect class="cls-1" x="778.04" y="826.81" width="11.47" height="48.46" transform="translate(-372.28 805.09) rotate(-45.08)"/><rect class="cls-1" x="785.72" y="845.24" width="48.46" height="11.47" transform="translate(-364.54 823.6) rotate(-45.08)"/><rect class="cls-1" x="672.49" y="740.86" width="85.02" height="11.47"/><rect class="cls-1" x="722.8" y="753.96" width="48.46" height="11.47" transform="translate(-318.37 749.81) rotate(-44.95)"/><rect class="cls-1" x="741.3" y="709.32" width="11.47" height="48.46" transform="translate(-299.9 742.17) rotate(-44.95)"/><rect class="cls-1" x="835.81" y="741.03" width="85.02" height="11.47" transform="translate(-6.23 7.38) rotate(-0.48)"/><rect class="cls-1" x="821.91" y="728.26" width="48.46" height="11.47" transform="translate(-270.48 822.65) rotate(-45.48)"/><rect class="cls-1" x="840.67" y="735.91" width="11.47" height="48.46" transform="translate(-289.04 830.65) rotate(-45.48)"/></g><polygon class="cls-1" points="329 284.12 625.65 584.32 609.48 600.85 312.84 300.65 329 284.12"/><polygon class="cls-1" points="525.56 571.94 626.04 578.77 624.27 601.81 523.78 594.97 525.56 571.94"/><polygon class="cls-1" points="630.61 501.42 624.72 601.97 601.67 600.4 607.56 499.86 630.61 501.42"/></g></g></g></svg>