<svg xmlns="http://www.w3.org/2000/svg" viewBox="0 0 683.66 1073.51"><defs><style>.cls-1{fill:#040505;}.cls-2{fill:#fff;stroke:#1d1d1b;stroke-miterlimit:10;stroke-width:36px;}.cls-3{fill:#010101;}</style></defs><title>Recurso 9</title><g id="Capa_2" data-name="Capa 2"><g id="Capa_1-2" data-name="Capa 1"><rect class="cls-1" x="111.1" y="139.26" width="264.95" height="62.75"/><rect class="cls-1" x="2.51" y="0.63" width="452.27" height="62.75" transform="translate(457.2 64.65) rotate(-179.84)"/><rect class="cls-1" x="0.09" y="893.26" width="681.41" height="62.75" transform="translate(679 1850.23) rotate(-179.84)"/><rect class="cls-1" x="-444.78" y="446.24" width="955" height="62.75" transform="translate(510.42 446.24) rotate(90.16)"/><rect class="cls-1" x="254.67" y="529.08" width="793.02" height="62.75" transform="translate(1213.45 -89.15) rotate(90.16)"/><rect class="cls-1" x="110.65" y="242.6" width="264.95" height="62.75"/><rect class="cls-1" x="111.55" y="347.62" width="451.36" height="62.75"/><rect class="cls-1" x="111.47" y="449.67" width="451.36" height="62.75"/><rect class="cls-1" x="110.99" y="552.68" width="451.36" height="62.75"/><rect class="cls-1" x="111.5" y="654.08" width="451.36" height="62.75"/><circle class="cls-2" cx="477.31" cy="912.08" r="143.43"/><rect class="cls-3" x="462.06" y="849.62" width="33.33" height="125.29"/><rect class="cls-3" x="461.92" y="849.44" width="33.33" height="125.29" transform="translate(1390.67 433.49) rotate(90)"/><rect class="cls-1" x="388.76" y="56.36" width="173.01" height="62.75" transform="translate(387.53 563) rotate(-90)"/><rect class="cls-1" x="443.89" y="167.59" width="180.09" height="62.75" transform="translate(1067.88 397.93) rotate(180)"/><rect class="cls-1" x="453.64" y="74.3" width="240.21" height="62.75" transform="translate(924.31 571.99) rotate(-137.37)"/></g></g></svg>