<svg xmlns="http://www.w3.org/2000/svg" viewBox="0 0 1070.68 1070.68"><defs><style>.cls-1{fill:#fff;stroke:#1d1d1b;stroke-miterlimit:10;stroke-width:61px;}.cls-2{fill:#040505;}</style></defs><title>Recurso 6</title><g id="Capa_2" data-name="Capa 2"><g id="Capa_1-2" data-name="Capa 1"><circle class="cls-1" cx="535.34" cy="535.34" r="504.84"/><rect class="cls-2" x="403.81" y="295.1" width="262.95" height="35.5" transform="translate(221.96 847.86) rotate(-89.95)"/><rect class="cls-2" x="500.85" y="195.96" width="149.89" height="35.5" transform="translate(831.34 772.2) rotate(-134.95)"/><rect class="cls-2" x="419.95" y="195.95" width="149.89" height="35.5" transform="translate(-6.33 412.09) rotate(-44.95)"/><rect class="cls-2" x="404.3" y="741.25" width="262.95" height="35.5" transform="translate(1294.02 222.16) rotate(89.92)"/><rect class="cls-2" x="420.55" y="840.49" width="149.89" height="35.5" transform="translate(750.64 -99.35) rotate(44.92)"/><rect class="cls-2" x="501.44" y="840.3" width="149.89" height="35.5" transform="translate(1590.97 1055.79) rotate(134.92)"/><rect class="cls-2" x="151.22" y="517.46" width="262.95" height="35.5"/><rect class="cls-2" x="306.89" y="557.96" width="149.89" height="35.5" transform="translate(-295.13 438.02) rotate(-44.95)"/><rect class="cls-2" x="306.89" y="477.07" width="149.89" height="35.5" transform="translate(462.28 -125) rotate(45.05)"/><rect class="cls-2" x="656.43" y="518.06" width="262.95" height="35.5" transform="translate(1580.29 1064.95) rotate(179.52)"/><rect class="cls-2" x="613.44" y="478.47" width="149.89" height="35.5" transform="translate(1524.85 353.29) rotate(134.52)"/><rect class="cls-2" x="614.19" y="559.37" width="149.89" height="35.5" transform="translate(775.89 1471.79) rotate(-135.48)"/></g></g></svg>