<svg xmlns="http://www.w3.org/2000/svg" viewBox="0 0 1070.68 1070.68"><defs><style>.cls-1,.cls-3{fill:#fff;stroke:#1d1d1b;stroke-miterlimit:10;}.cls-1{stroke-width:61px;}.cls-2{fill:#040505;}.cls-3{stroke-width:15px;}</style></defs><title>Recurso 2</title><g id="Capa_2" data-name="Capa 2"><g id="Capa_1-2" data-name="Capa 1"><g id="Capa_1-2-2" data-name="Capa 1-2"><circle class="cls-1" cx="535.34" cy="535.34" r="504.84"/></g><g id="Capa_1-2-3" data-name="Capa 1-2"><polygon points="358.78 437.68 321.75 373.5 284.68 437.67 358.78 437.68"/><rect class="cls-2" x="223.38" y="245.03" width="12.88" height="139.87"/><rect class="cls-2" x="406.55" y="245.02" width="12.88" height="139.87"/><rect class="cls-2" x="223.38" y="372.01" width="196.04" height="12.88"/><rect class="cls-2" x="223.41" y="245.01" width="196.04" height="12.88"/></g><g id="Capa_1-2-4" data-name="Capa 1-2"><circle class="cls-3" cx="754.7" cy="742.97" r="108.85"/><rect class="cls-2" x="750.86" y="666.65" width="7.65" height="56.7"/><rect class="cls-2" x="759.59" y="657.46" width="7.65" height="32.32" transform="translate(-252.77 736.23) rotate(-44.95)"/><rect class="cls-2" x="729.82" y="669.79" width="32.32" height="7.65" transform="translate(-257.87 723.91) rotate(-44.95)"/><rect class="cls-2" x="750.96" y="762.84" width="7.65" height="56.7" transform="translate(-1.1 1.05) rotate(-0.08)"/><rect class="cls-2" x="742.27" y="796.43" width="7.65" height="32.32" transform="translate(-356.12 767.11) rotate(-45.08)"/><rect class="cls-2" x="747.39" y="808.72" width="32.32" height="7.65" transform="translate(-350.96 779.46) rotate(-45.08)"/><rect class="cls-2" x="671.88" y="739.11" width="56.7" height="7.65"/><rect class="cls-2" x="705.44" y="747.84" width="32.32" height="7.65" transform="translate(-320.14 729.5) rotate(-44.95)"/><rect class="cls-2" x="717.77" y="718.07" width="7.65" height="32.32" transform="translate(-307.82 724.4) rotate(-44.95)"/><rect class="cls-2" x="780.81" y="739.23" width="56.7" height="7.65" transform="translate(-6.2 6.8) rotate(-0.48)"/><rect class="cls-2" x="771.53" y="730.7" width="32.32" height="7.65" transform="translate(-288.32 781.14) rotate(-45.48)"/><rect class="cls-2" x="784.04" y="735.81" width="7.65" height="32.32" transform="translate(-300.71 786.47) rotate(-45.48)"/></g><polygon class="cls-2" points="442.8 434.5 640.64 634.71 629.86 645.73 432.02 445.52 442.8 434.5"/><polygon class="cls-2" points="573.89 626.45 640.9 631.01 639.72 646.37 572.7 641.81 573.89 626.45"/><polygon class="cls-2" points="643.95 579.42 640.02 646.48 624.65 645.43 628.58 578.38 643.95 579.42"/></g></g></svg>